HIERARCHY
ROOT Hips
{
	OFFSET 53.754299 -29.048016 95.689995
	CHANNELS 6 Xposition Yposition Zposition Xrotation Yrotation Zrotation
	JOINT spine
	{
		OFFSET 0.000000 -0.458069 7.965683
		CHANNELS 3 Xrotation Yrotation Zrotation
		JOINT spine1
		{
			OFFSET 0.000000 -0.000002 10.243103
			CHANNELS 3 Xrotation Yrotation Zrotation
			JOINT spine2
			{
				OFFSET 0.000000 -0.000002 9.814751
				CHANNELS 3 Xrotation Yrotation Zrotation
				JOINT Neck
				{
					OFFSET 0.000000 -1.201384 25.198608
					CHANNELS 3 Xrotation Yrotation Zrotation
					JOINT Head
					{
						OFFSET 0.000000 0.000000 7.613144
						CHANNELS 3 Xrotation Yrotation Zrotation
						End Site
						{
							OFFSET 0.000000 6.077326 18.428101
						}
					}
				}
				JOINT RightShoulder
				{
					OFFSET -4.132702 0.575451 10.599213
					CHANNELS 3 Xrotation Yrotation Zrotation
					JOINT RightArm
					{
						OFFSET 0.000000 -0.000004 13.901794
						CHANNELS 3 Xrotation Yrotation Zrotation
						JOINT RightArmRoll
						{
							OFFSET 0.000000 0.000000 7.017883
							CHANNELS 3 Xrotation Yrotation Zrotation
							JOINT RightForeArm
							{
								OFFSET 0.000000 -0.000004 20.440598
								CHANNELS 3 Xrotation Yrotation Zrotation
								JOINT RightForeArmRoll
								{
									OFFSET 0.000000 -0.000002 7.875153
									CHANNELS 3 Xrotation Yrotation Zrotation
									JOINT RightHand
									{
										OFFSET 0.000000 -0.000002 15.803696
										CHANNELS 3 Xrotation Yrotation Zrotation
										End Site
										{
											OFFSET 0.000000 0.000000 0.100006
										}
									}
								}
							}
						}
					}
				}
				JOINT LeftShoulder
				{
					OFFSET 4.132702 0.575451 10.599213
					CHANNELS 3 Xrotation Yrotation Zrotation
					JOINT LeftArm
					{
						OFFSET 0.000000 -0.000004 13.901794
						CHANNELS 3 Xrotation Yrotation Zrotation
						JOINT LeftArmRoll
						{
							OFFSET 0.000000 0.000000 7.017883
							CHANNELS 3 Xrotation Yrotation Zrotation
							JOINT LeftForeArm
							{
								OFFSET 0.000000 -0.000004 20.440598
								CHANNELS 3 Xrotation Yrotation Zrotation
								JOINT LeftForeArmRoll
								{
									OFFSET 0.000000 -0.000002 7.875168
									CHANNELS 3 Xrotation Yrotation Zrotation
									JOINT LeftHand
									{
										OFFSET 0.000000 -0.000002 15.803696
										CHANNELS 3 Xrotation Yrotation Zrotation
										End Site
										{
											OFFSET 0.000000 0.000000 0.100006
										}
									}
								}
							}
						}
					}
				}
			}
		}
	}
	JOINT RightUpLeg
	{
		OFFSET -7.060482 1.086100 -1.294701
		CHANNELS 3 Xrotation Yrotation Zrotation
		JOINT RightUpLegRoll
		{
			OFFSET 0.000000 -0.000004 18.530800
			CHANNELS 3 Xrotation Yrotation Zrotation
			JOINT RightLeg
			{
				OFFSET 0.000000 0.000004 -22.947601
				CHANNELS 3 Xrotation Yrotation Zrotation
				JOINT RightLegRoll
				{
					OFFSET 0.000000 -0.000004 23.022598
					CHANNELS 3 Xrotation Yrotation Zrotation
					JOINT RightFoot
					{
						OFFSET 0.000000 -0.000002 19.162514
						CHANNELS 3 Xrotation Yrotation Zrotation
						JOINT RightToeBase
						{
							OFFSET 0.000000 -0.000004 16.018799
							CHANNELS 3 Xrotation Yrotation Zrotation
							End Site
							{
								OFFSET 0.006790 0.894207 7.757812
							}
						}
					}
				}
			}
		}
	}
	JOINT LeftUpLeg
	{
		OFFSET 7.060482 1.086100 -1.294701
		CHANNELS 3 Xrotation Yrotation Zrotation
		JOINT LeftUpLegRoll
		{
			OFFSET 0.000000 -0.000004 18.530899
			CHANNELS 3 Xrotation Yrotation Zrotation
			JOINT LeftLeg
			{
				OFFSET 0.000000 -0.000004 22.947510
				CHANNELS 3 Xrotation Yrotation Zrotation
				JOINT LeftLegRoll
				{
					OFFSET 0.000000 -0.000004 23.235504
					CHANNELS 3 Xrotation Yrotation Zrotation
					JOINT LeftFoot
					{
						OFFSET 0.000000 -0.000002 18.949600
						CHANNELS 3 Xrotation Yrotation Zrotation
						JOINT LeftToeBase
						{
							OFFSET 0.000000 -0.000004 16.018799
							CHANNELS 3 Xrotation Yrotation Zrotation
							End Site
							{
								OFFSET -0.030430 0.894207 7.757812
							}
						}
					}
				}
			}
		}
	}
}
MOTION
Frames: 7
Frame Time: 0.041667
52.111095 13.109184 56.618282 -1.744079 -2.740012 7.234350 0.358585 0.214956 -0.416619 4.720719 0.423544 -0.815179 6.365748 0.413725 -0.820251 5.075146 3.338739 -1.639994 3.733544 -2.752055 -1.669625 -3.444251 -62.831436 -4.466297 -58.381957 -132.071816 -67.488758 -0.000002 -0.000001 0.000001 38.408404 -14.217183 3.375637 -0.000005 0.000004 -3.003511 -4.999757 -7.998711 0.000030 -6.492083 69.818740 8.516560 113.704809 50.369309 -103.055253 0.000004 0.000001 -0.000001 39.382082 16.606461 -4.676158 -0.000003 -0.000003 3.007360 -4.999678 7.998862 0.000045 -85.352469 -166.985954 -2.717017 179.999991 -0.000005 -0.931004 97.868394 5.037241 0.230355 -0.000004 -0.000002 1.383769 62.043109 4.600946 7.546206 25.463321 -7.355616 0.000859 -83.803580 175.568742 -1.906973 -0.000036 -0.000004 -1.335920 -83.327679 -2.247027 1.086900 -0.000007 -0.000002 -1.824228 62.709258 -5.863668 -4.792358 25.458874 7.355614 -0.001622 
52.113796 13.107883 56.620083 -1.730184 -2.743011 7.233924 0.359784 0.215941 -0.415883 4.722181 0.425856 -0.815720 6.367209 0.416032 -0.820816 5.079025 3.350951 -1.640095 3.735389 -2.760342 -1.669835 -3.448124 -62.819429 -4.469576 -58.371152 -132.072103 -67.496537 -0.000000 -0.000000 0.000001 38.433297 -14.220776 3.379658 -0.000005 0.000008 -3.003508 -4.999757 -7.998712 0.000028 -6.504490 69.818781 8.530344 113.696470 50.376364 -103.032188 0.000002 -0.000000 -0.000000 39.406291 16.610311 -4.679629 -0.000004 -0.000004 3.007360 -4.999674 7.998858 0.000044 -85.368035 -166.987935 -2.721473 179.999991 -0.000005 -0.931004 97.867691 5.038528 0.230298 -0.000003 -0.000002 1.383210 62.043724 4.600298 7.547078 25.463321 -7.355617 0.000859 -83.815854 175.569507 -1.908356 -0.000035 -0.000004 -1.335890 -83.327973 -2.245702 1.088419 -0.000007 -0.000002 -1.824259 62.709804 -5.862799 -4.794319 25.458873 7.355616 -0.001624 
52.128895 13.101185 56.614380 -1.716613 -2.746339 7.233435 0.361063 0.216958 -0.415125 4.723732 0.428247 -0.816288 6.368761 0.418420 -0.821409 5.082716 3.363115 -1.640174 3.737029 -2.768520 -1.670033 -3.452251 -62.807524 -4.473152 -58.360449 -132.072472 -67.505198 -0.000001 0.000000 0.000002 38.458265 -14.224674 3.383759 -0.000006 0.000003 -3.003511 -4.999757 -7.998710 0.000029 -6.517615 69.818897 8.544924 113.686716 50.383485 -103.007558 -0.000000 0.000001 -0.000001 39.429938 16.614526 -4.683312 -0.000005 -0.000003 3.007361 -4.999679 7.998862 0.000044 -85.383525 -166.989724 -2.726717 179.999991 -0.000005 -0.931004 97.866987 5.040003 0.231224 -0.000003 -0.000002 1.382641 62.044141 4.599667 7.547992 25.463321 -7.355617 0.000859 -83.827724 175.570299 -1.909945 -0.000035 -0.000003 -1.335890 -83.328246 -2.244319 1.090033 -0.000007 -0.000002 -1.824309 62.710351 -5.861928 -4.796277 25.458874 7.355613 -0.001622 
52.122196 13.097286 56.613686 -1.703263 -2.749887 7.232899 0.362389 0.217997 -0.414347 4.725343 0.430697 -0.816875 6.370373 0.420864 -0.822023 5.086255 3.375258 -1.640240 3.738524 -2.776628 -1.670241 -3.456562 -62.795707 -4.476943 -58.349951 -132.072977 -67.514521 0.000000 -0.000000 0.000001 38.483506 -14.228915 3.388116 -0.000004 0.000005 -3.003510 -4.999756 -7.998706 0.000030 -6.531198 69.819000 8.560034 113.676792 50.390421 -102.982785 -0.000001 0.000000 -0.000000 39.453000 16.618941 -4.687022 -0.000004 -0.000003 3.007362 -4.999681 7.998858 0.000045 -85.398736 -166.991541 -2.731630 179.999991 -0.000004 -0.931004 97.866195 5.041614 0.233143 -0.000004 -0.000001 1.382060 62.044646 4.599004 7.548827 25.463317 -7.355618 0.000859 -83.839336 175.571119 -1.911357 -0.000036 -0.000003 -1.335900 -83.328615 -2.242878 1.091543 -0.000007 -0.000002 -1.824369 62.710904 -5.861106 -4.798245 25.458874 7.355612 -0.001621 
52.103096 13.114780 56.618382 -1.690052 -2.753563 7.232346 0.363746 0.219048 -0.413559 4.726984 0.433179 -0.817474 6.372016 0.423342 -0.822648 5.089716 3.387383 -1.640304 3.739922 -2.784686 -1.670437 -3.460940 -62.783789 -4.480812 -58.340375 -132.072977 -67.525381 0.000001 0.000000 0.000001 38.508658 -14.233251 3.392437 -0.000004 0.000006 -3.003511 -4.999757 -7.998709 0.000028 -6.545050 69.819088 8.575425 113.666792 50.397271 -102.958060 0.000000 -0.000001 -0.000000 39.475983 16.623453 -4.690830 -0.000003 -0.000002 3.007361 -4.999680 7.998859 0.000045 -85.413681 -166.993358 -2.735709 179.999991 -0.000005 -0.931004 97.865484 5.043281 0.235068 -0.000003 -0.000002 1.381480 62.045152 4.598344 7.549658 25.463323 -7.355618 0.000859 -83.850715 175.571939 -1.913177 -0.000035 -0.000004 -1.335919 -83.328964 -2.241406 1.093248 -0.000007 -0.000002 -1.824430 62.711546 -5.860213 -4.800195 25.458873 7.355617 -0.001623 
52.109596 13.112083 56.618572 -1.676861 -2.757280 7.231791 0.365108 0.220102 -0.412769 4.728637 0.435670 -0.818075 6.373668 0.425826 -0.823275 5.093157 3.399506 -1.640359 3.741311 -2.792734 -1.670644 -3.465350 -62.771959 -4.484724 -58.329775 -132.073415 -67.535025 -0.000003 -0.000000 0.000002 38.533929 -14.237636 3.396835 -0.000009 0.000005 -3.003511 -4.999754 -7.998709 0.000027 -6.558981 69.819170 8.590905 113.656704 50.404037 -102.933362 0.000000 -0.000000 -0.000001 39.498776 16.628078 -4.694666 -0.000003 -0.000004 3.007361 -4.999678 7.998858 0.000044 -85.428810 -166.995011 -2.740906 179.999991 -0.000005 -0.931004 97.864870 5.044813 0.234989 -0.000004 -0.000001 1.380891 62.045555 4.597693 7.550610 25.463323 -7.355615 0.000858 -83.862169 175.572840 -1.914873 -0.000036 -0.000004 -1.335940 -83.329312 -2.239932 1.094856 -0.000007 -0.000002 -1.824489 62.712201 -5.859373 -4.802156 25.458873 7.355613 -0.001624 
52.094395 13.049786 56.613892 -1.663610 -2.760927 7.231243 0.366463 0.221152 -0.411986 4.730269 0.438144 -0.818671 6.375300 0.428295 -0.823897 5.096627 3.411640 -1.640425 3.742736 -2.800813 -1.670846 -3.469714 -62.760143 -4.488578 -58.319263 -132.073947 -67.544533 -0.000001 0.000000 0.000001 38.559205 -14.242007 3.401270 -0.000007 0.000003 -3.003511 -4.999756 -7.998708 0.000031 -6.572802 69.819259 8.606256 113.647880 50.410570 -102.910126 -0.000001 0.000000 -0.000000 39.521763 16.632576 -4.698459 -0.000004 -0.000004 3.007361 -4.999677 7.998858 0.000044 -85.443966 -166.996773 -2.745904 179.999991 -0.000005 -0.931004 97.864071 5.046423 0.236909 -0.000004 -0.000001 1.380311 62.046067 4.597030 7.551443 25.463319 -7.355616 0.000860 -83.873692 175.573633 -1.916088 -0.000036 -0.000004 -1.335960 -83.329667 -2.238470 1.096465 -0.000007 -0.000002 -1.824550 62.712850 -5.858530 -4.804014 25.458876 7.355612 -0.001622 
